<svg width="16" height="16" viewBox="0 0 16 16" fill="none" xmlns="http://www.w3.org/2000/svg">
<path d="M9.56992 0.68125C9.52918 0.35625 9.28476 0.09375 8.95887 0.05625C8.65178 0.01875 8.33842 0 8.02193 0C7.67411 0 7.32942 0.021875 6.99412 0.065625C6.67137 0.10625 6.43008 0.36875 6.38935 0.690625L6.29847 1.4125C6.2734 1.6125 6.12926 1.775 5.93811 1.84063C5.63729 1.94063 5.34273 2.06562 5.06385 2.20625C4.8821 2.3 4.66275 2.28437 4.4998 2.15937L3.93576 1.72187C3.67881 1.52187 3.31845 1.50937 3.0615 1.70938C2.54132 2.11562 2.07442 2.58437 1.67019 3.10625C1.47278 3.3625 1.48531 3.71875 1.68586 3.975L2.13083 4.54688C2.25617 4.70625 2.2687 4.92188 2.17783 5.10313C2.03995 5.37813 1.92088 5.6625 1.82374 5.95937C1.76107 6.15312 1.59499 6.29688 1.39444 6.32188L0.679984 6.4125C0.357227 6.45312 0.094007 6.69688 0.0532707 7.01875C0.021935 7.3375 0 7.66563 0 8C0 8.33125 0.0188014 8.65938 0.0595378 8.98125C0.100274 9.30312 0.363494 9.54688 0.686251 9.5875L1.4007 9.67813C1.60125 9.70312 1.76733 9.84687 1.83 10.0406C1.92714 10.3375 2.04622 10.625 2.1841 10.9C2.27497 11.0812 2.2593 11.2969 2.13709 11.4563L1.69213 12.025C1.49158 12.2812 1.47904 12.6375 1.67646 12.8938C2.08069 13.4156 2.54759 13.8844 3.06776 14.2906C3.32472 14.4906 3.68508 14.4781 3.94203 14.2781L4.50607 13.8406C4.66588 13.7156 4.88837 13.7031 5.07011 13.7937C5.35213 13.9375 5.64356 14.0594 5.94438 14.1594C6.13553 14.225 6.27967 14.3875 6.30474 14.5875L6.39561 15.3094C6.43635 15.6312 6.67763 15.8938 7.00039 15.9344C7.33568 15.9781 7.68038 16 8.0282 16C8.34469 16 8.65805 15.9812 8.96514 15.9469C9.29103 15.9094 9.53545 15.6437 9.57618 15.3219L9.66392 14.6187C9.68899 14.4156 9.83627 14.25 10.0306 14.1875C10.3439 14.0875 10.6479 13.9625 10.9393 13.8188C11.121 13.7281 11.3372 13.7438 11.4971 13.8656L12.0642 14.3094C12.3212 14.5094 12.6784 14.5219 12.9354 14.325C13.0231 14.2562 13.1077 14.1875 13.1923 14.1156L14.1543 13.1562C14.2107 13.0875 14.2671 13.0188 14.3235 12.95C14.5272 12.6937 14.5116 12.3344 14.311 12.0781L13.8723 11.5188C13.747 11.3594 13.7344 11.1375 13.8253 10.9563C13.9757 10.6625 14.1073 10.3531 14.2107 10.0344C14.2734 9.84062 14.4395 9.69687 14.64 9.67188L15.3545 9.58438C15.6772 9.54375 15.9436 9.3 15.9812 8.97812C15.9875 8.925 15.9937 8.86875 16 8.81563V7.19063C15.9937 7.1375 15.9875 7.08125 15.9812 7.02812C15.9405 6.70625 15.6772 6.4625 15.3545 6.42188L14.64 6.33437C14.4395 6.30937 14.2734 6.16563 14.2107 5.97188C14.1042 5.65313 13.9757 5.34375 13.8253 5.05C13.7313 4.86875 13.747 4.65 13.8723 4.4875L14.311 3.92812C14.5116 3.67188 14.5241 3.3125 14.3235 3.05625C14.2671 2.9875 14.2107 2.91875 14.1543 2.85L13.1923 1.88437C13.1077 1.8125 13.0231 1.74375 12.9354 1.675C12.6784 1.475 12.3212 1.49062 12.0642 1.69062L11.4908 2.13438C11.331 2.25938 11.1116 2.27188 10.933 2.18125C10.6416 2.0375 10.3376 1.9125 10.0243 1.8125C9.83 1.75 9.68273 1.58438 9.65766 1.38437L9.56992 0.68125ZM9.01841 5.08125L8.01567 11.0813C7.96866 11.3531 7.71171 11.5375 7.43909 11.4937C7.16647 11.45 6.98159 11.1906 7.02546 10.9187L8.0282 4.91875C8.07521 4.64687 8.33216 4.4625 8.60478 4.50625C8.8774 4.55 9.06228 4.80938 9.01841 5.08125ZM5.86917 7.10313L4.96984 8L5.86917 8.89688C6.06345 9.09063 6.06345 9.40937 5.86917 9.60312C5.67489 9.79688 5.35527 9.79688 5.16099 9.60312L3.90756 8.35312C3.71328 8.15937 3.71328 7.84062 3.90756 7.64687L5.16099 6.39687C5.35527 6.20312 5.67489 6.20312 5.86917 6.39687C6.06345 6.59062 6.06345 6.90938 5.86917 7.10313ZM10.8829 6.39687L12.1363 7.64687C12.3306 7.84062 12.3306 8.15937 12.1363 8.35312L10.8829 9.60312C10.6886 9.79688 10.369 9.79688 10.1747 9.60312C9.98042 9.40937 9.98042 9.09063 10.1747 8.89688L11.074 8L10.1747 7.10313C9.98042 6.90938 9.98042 6.59062 10.1747 6.39687C10.369 6.20312 10.6886 6.20312 10.8829 6.39687Z" fill="url(#paint0_linear_1_6)"/>
<circle cx="8" cy="8" r="5" fill="#EEEEEE"/>
<defs>
<linearGradient id="paint0_linear_1_6" x1="8" y1="0" x2="8" y2="16" gradientUnits="userSpaceOnUse">
<stop stop-color="#EE0F0F"/>
<stop offset="1" stop-color="#E56910"/>
</linearGradient>
</defs>
</svg>
